<?xml version="1.0" standalone="no"?>
<!DOCTYPE svg PUBLIC "-//W3C//DTD SVG 20010904//EN"
 "http://www.w3.org/TR/2001/REC-SVG-20010904/DTD/svg10.dtd">
<svg version="1.0" xmlns="http://www.w3.org/2000/svg"
 width="740.000000pt" height="740.000000pt" viewBox="0 0 740.000000 740.000000"
 preserveAspectRatio="xMidYMid meet">

<g transform="translate(0.000000,740.000000) scale(0.100000,-0.100000)"
fill="#000000" stroke="none">
<path d="M3665 5919 c-27 -11 -183 -69 -345 -130 -417 -156 -430 -161 -424
-170 3 -5 -1 -6 -8 -4 -19 8 -735 -265 -724 -275 2 -3 -6 -6 -18 -6 -13 -1
-38 -9 -57 -17 -19 -9 -52 -23 -73 -32 -22 -8 -37 -17 -35 -19 15 -15 521
-196 530 -190 8 5 9 3 4 -6 -6 -10 -3 -12 13 -8 12 4 20 3 17 -1 -4 -8 284
-119 627 -241 106 -37 231 -82 277 -99 68 -26 89 -30 115 -22 27 9 166 58 206
74 8 4 276 101 595 217 610 221 655 239 655 250 0 8 -193 86 -370 150 -58 21
-133 50 -168 65 -35 14 -67 23 -72 20 -6 -4 -10 -2 -10 3 0 5 -19 16 -42 25
-24 8 -105 38 -181 66 -148 55 -154 56 -207 41 -31 -8 -37 -16 -49 -54 -7 -25
-21 -52 -32 -62 -10 -9 -17 -20 -14 -24 2 -4 -1 -7 -8 -8 -7 0 -32 -8 -57 -17
-64 -24 -121 -13 -171 32 -67 61 -73 152 -15 215 12 12 20 25 19 29 -1 3 3 6
10 7 7 0 32 6 56 13 38 10 51 10 98 -6 48 -17 60 -17 101 -5 84 24 114 23 198
-5 136 -45 309 -110 594 -220 151 -59 299 -116 328 -127 61 -23 107 -58 128
-100 19 -36 30 -249 20 -350 -7 -63 -9 -66 -37 -72 -20 -4 -28 -10 -23 -17 4
-7 3 -9 -3 -6 -16 10 -52 -21 -73 -63 -28 -54 -26 -133 3 -185 32 -58 114 -99
181 -90 100 13 166 88 166 188 0 51 -34 132 -51 121 -7 -4 -9 -3 -5 4 7 12
-53 52 -78 52 -14 0 -16 20 -16 179 l0 179 91 40 c50 22 87 42 82 45 -36 22
-305 117 -314 111 -7 -4 -9 -3 -6 3 6 9 -315 139 -653 266 -58 21 -118 45
-135 52 -16 7 -64 25 -105 40 -41 15 -113 42 -160 60 -198 78 -276 105 -300
104 -14 0 -47 -9 -75 -20z"/>
<path d="M5020 5151 c-16 -9 -419 -164 -457 -175 -22 -7 -49 -33 -42 -40 7 -7
166 48 349 120 134 53 170 71 170 86 0 21 0 20 -20 9z"/>
<path d="M4541 4873 c-53 -18 -70 -28 -60 -35 10 -7 8 -8 -7 -3 -21 5 -82 -15
-554 -182 -102 -36 -229 -81 -282 -100 l-97 -34 -223 82 c-123 44 -263 96
-313 114 -49 18 -103 37 -119 41 l-28 7 3 -91 c5 -107 13 -120 108 -164 236
-108 523 -154 871 -138 244 10 425 47 625 126 101 40 155 76 155 103 0 17 -14
13 -122 -30 -180 -71 -239 -75 -225 -16 8 28 20 35 202 102 131 48 140 53 143
79 4 33 12 35 -173 -36 -171 -65 -214 -76 -226 -57 -29 46 3 66 249 159 130
49 156 62 157 79 2 25 8 25 -84 -6z"/>
<path d="M2618 4772 c-60 -62 -162 -211 -208 -302 -45 -90 -100 -247 -128
-365 -23 -98 -26 -131 -26 -310 -1 -219 8 -284 66 -458 53 -161 151 -333 275
-487 63 -77 153 -170 153 -157 0 4 18 -11 41 -34 53 -53 173 -131 284 -184
383 -183 795 -203 1195 -59 83 29 252 113 289 142 23 19 23 19 5 48 -10 16
-31 45 -46 66 l-28 36 -93 -50 c-125 -68 -187 -95 -287 -124 -315 -92 -642
-65 -940 77 -116 55 -183 95 -248 147 -23 19 -50 35 -60 36 -9 2 -15 6 -12 9
3 4 -25 37 -61 74 -76 78 -172 200 -200 256 -11 21 -24 35 -29 32 -6 -4 -7 1
-3 11 5 13 3 15 -7 9 -8 -5 -11 -4 -6 3 9 14 -14 63 -27 55 -6 -3 -7 -1 -3 5
4 6 -1 28 -10 49 -23 54 -52 147 -72 228 -27 110 -24 448 5 572 42 177 145
394 229 484 23 24 25 35 27 134 1 70 -2 109 -9 112 -6 2 -36 -23 -66 -55z
m-351 -874 c-3 -8 -6 -5 -6 6 -1 11 2 17 5 13 3 -3 4 -12 1 -19z"/>
<path d="M4741 4516 c-11 -20 -8 -34 29 -111 100 -210 134 -359 133 -590 -1
-159 -12 -234 -59 -373 -28 -86 -100 -233 -147 -301 -17 -25 -30 -50 -30 -58
0 -7 -2 -11 -5 -9 -2 3 -26 -21 -52 -52 -26 -31 -80 -88 -118 -126 -39 -38
-68 -74 -65 -79 3 -6 2 -7 -4 -4 -6 4 -34 -11 -63 -33 -69 -52 -71 -54 -25
-33 75 34 136 74 129 85 -4 6 -3 8 3 5 20 -12 189 136 177 155 -4 6 -2 8 4 4
23 -14 210 279 198 311 -3 8 -2 12 3 9 18 -11 76 172 97 305 23 142 16 369
-15 497 -13 50 -27 90 -32 87 -5 -4 -6 1 -3 9 10 26 -106 303 -134 320 -5 3
-15 -5 -21 -18z"/>
<path d="M2710 4490 c-6 -11 -8 -26 -4 -32 4 -7 3 -8 -4 -4 -20 12 -97 -168
-140 -324 -78 -285 -43 -608 96 -885 60 -121 194 -301 214 -289 7 4 8 2 4 -4
-10 -17 139 -130 236 -180 46 -24 75 -37 64 -30 -124 85 -286 244 -372 363
-148 207 -224 443 -224 696 0 211 40 384 135 583 35 73 41 93 31 108 -14 23
-23 23 -36 -2z"/>
<path d="M4445 4325 c-66 -24 -130 -44 -142 -44 -19 -1 -20 -4 -12 -33 24 -89
49 -233 55 -315 3 -51 10 -93 16 -93 5 0 6 -4 3 -10 -4 -7 53 -10 164 -10
l171 0 1 33 c3 93 -17 211 -58 342 -22 69 -69 177 -76 174 -1 0 -56 -20 -122
-44z"/>
<path d="M2886 4296 c-58 -122 -106 -318 -106 -433 l0 -43 184 0 183 0 5 93
c3 50 18 145 33 209 29 121 28 148 -2 148 -10 0 -74 19 -143 43 l-125 43 -29
-60z"/>
<path d="M3372 4198 c-26 -84 -52 -245 -52 -320 l0 -58 175 0 175 0 0 194 0
193 -112 7 c-62 4 -127 9 -144 12 -29 5 -33 3 -42 -28z"/>
<path d="M3950 4218 c-58 -6 -106 -11 -108 -13 -2 -1 -6 -89 -9 -194 l-6 -191
178 0 178 0 -7 103 c-7 106 -15 153 -42 250 -20 65 -2 61 -184 45z"/>
<path d="M2795 3628 c10 -72 38 -157 48 -151 6 3 7 1 3 -6 -4 -6 -4 -21 -1
-32 6 -17 9 -19 17 -8 7 10 8 9 4 -7 -4 -11 3 -40 15 -65 33 -69 100 -169 110
-163 5 3 6 -2 3 -10 -8 -20 188 -217 271 -273 88 -59 198 -118 192 -102 -2 8
-9 13 -15 12 -5 -1 -9 5 -8 15 0 9 -5 16 -12 14 -8 -1 -11 2 -7 7 3 6 -5 28
-19 49 -112 178 -194 407 -232 650 l-18 112 -179 0 -179 0 7 -42z"/>
<path d="M3324 3618 c31 -242 132 -515 260 -708 37 -54 71 -102 76 -105 7 -4
10 149 10 429 l0 436 -176 0 -177 0 7 -52z"/>
<path d="M3830 3234 l0 -437 65 92 c36 51 65 94 65 96 0 2 13 26 28 52 71 122
148 346 177 517 8 49 15 95 15 102 0 11 -34 14 -175 14 l-175 0 0 -436z"/>
<path d="M4345 3613 c-10 -99 -54 -282 -91 -380 -19 -51 -32 -98 -28 -105 5
-7 3 -8 -6 -3 -10 6 -12 4 -7 -9 5 -11 3 -15 -5 -10 -8 5 -9 2 -5 -10 4 -9 3
-15 -2 -12 -5 3 -14 -8 -20 -26 -6 -17 -38 -73 -71 -125 -33 -52 -57 -99 -54
-105 4 -6 3 -8 -3 -5 -6 4 -16 0 -23 -8 -18 -22 -4 -19 62 15 77 40 190 123
278 206 104 99 217 275 275 427 19 52 55 183 55 203 0 2 -78 4 -174 4 l-175 0
-6 -57z"/>
<path d="M3187 1987 c-22 -6 -35 -16 -31 -20 5 -4 2 -5 -7 -2 -18 7 -102 -51
-94 -65 3 -6 1 -10 -5 -10 -24 0 -54 -93 -54 -165 0 -159 106 -265 266 -265
73 0 114 11 135 38 9 11 12 11 7 2 -17 -34 60 38 83 78 l25 42 -60 0 c-52 0
-62 -3 -75 -24 -9 -13 -37 -32 -63 -42 -40 -15 -52 -16 -93 -5 -50 13 -88 43
-102 79 -5 13 -12 21 -17 18 -15 -9 -5 138 11 170 52 100 179 124 255 48 30
-30 40 -34 88 -34 l54 0 -19 38 c-25 48 -66 86 -82 77 -7 -5 -10 -4 -6 2 9 15
-68 44 -128 49 -27 2 -67 -2 -88 -9z"/>
<path d="M4993 1986 c-83 -27 -165 -98 -147 -127 4 -7 3 -9 -3 -6 -16 10 -35
-42 -40 -108 -6 -73 21 -153 69 -204 105 -111 313 -108 408 7 86 104 78 286
-16 374 -71 65 -185 92 -271 64z m151 -90 c33 -14 86 -72 86 -95 0 -7 3 -10 8
-7 4 2 5 -28 1 -68 -7 -90 -33 -136 -93 -165 -158 -77 -301 94 -221 263 34 72
137 106 219 72z"/>
<path d="M1515 1725 l0 -265 153 0 152 0 0 40 0 40 -105 0 -105 0 0 75 0 75
90 0 90 0 0 40 0 40 -90 0 -90 0 0 70 0 70 105 0 105 0 0 40 0 40 -152 0 -153
0 0 -265z"/>
<path d="M1925 1725 l0 -267 135 4 c109 3 144 8 180 25 107 48 162 157 145
283 -8 57 -63 155 -87 155 -9 0 -20 4 -25 9 -4 5 -3 6 5 2 6 -4 12 -5 12 -2 0
3 -19 15 -42 28 -37 18 -64 22 -183 26 l-140 4 0 -267z m258 171 c50 -20 95
-78 102 -131 21 -135 -59 -224 -202 -225 l-63 0 0 185 0 185 65 0 c36 0 80 -6
98 -14z"/>
<path d="M2480 1801 c0 -179 10 -258 31 -245 5 3 6 -1 4 -8 -7 -18 42 -62 84
-77 52 -17 150 -13 196 8 48 22 80 55 69 72 -4 7 -3 10 3 6 24 -15 33 49 33
238 l0 195 -47 0 -48 0 3 -151 c2 -83 1 -171 -3 -194 -15 -105 -141 -139 -205
-57 -18 23 -20 41 -20 213 l0 189 -50 0 -50 0 0 -189z"/>
<path d="M3766 1978 c-3 -7 -28 -78 -56 -158 -28 -80 -65 -183 -81 -230 -17
-47 -34 -95 -39 -107 -9 -22 -8 -23 43 -23 l53 0 15 48 15 47 114 0 114 0 17
-45 c16 -45 17 -45 68 -48 28 -2 51 -2 51 0 0 2 -42 120 -94 263 l-93 260 -62
3 c-44 2 -62 -1 -65 -10z m108 -215 c20 -60 36 -111 36 -115 0 -5 -35 -8 -79
-8 l-78 0 1 39 c0 22 4 35 7 29 4 -6 20 28 35 76 15 47 31 86 35 86 3 0 22
-48 43 -107z"/>
<path d="M4140 1950 l0 -40 70 0 70 0 0 -225 0 -225 50 0 50 0 0 225 0 225 70
0 70 0 0 40 0 40 -190 0 -190 0 0 -40z"/>
<path d="M4610 1725 l0 -265 50 0 50 0 0 265 0 265 -50 0 -50 0 0 -265z"/>
<path d="M5430 1725 l0 -265 50 0 50 0 2 188 3 187 39 -57 c21 -32 43 -55 49
-51 6 3 7 1 3 -5 -4 -6 24 -58 61 -115 37 -56 73 -112 79 -122 8 -15 24 -21
65 -23 l54 -3 -3 266 -3 265 -44 0 -45 0 0 -180 c0 -99 -4 -180 -9 -180 -5 0
-62 81 -127 180 l-118 180 -53 0 -53 0 0 -265z"/>
</g>
</svg>
