<?xml version="1.0" standalone="no"?>
<!DOCTYPE svg PUBLIC "-//W3C//DTD SVG 20010904//EN"
 "http://www.w3.org/TR/2001/REC-SVG-20010904/DTD/svg10.dtd">
<svg version="1.0" xmlns="http://www.w3.org/2000/svg"
 width="552.000000pt" height="402.000000pt" viewBox="0 0 552.000000 402.000000"
 preserveAspectRatio="xMidYMid meet">

<g transform="translate(0.000000,402.000000) scale(0.100000,-0.100000)"
fill="#000000" stroke="none">
<path d="M2538 3073 c6 -2 18 -2 25 0 6 3 1 5 -13 5 -14 0 -19 -2 -12 -5z"/>
<path d="M2468 3063 c7 -3 16 -2 19 1 4 3 -2 6 -13 5 -11 0 -14 -3 -6 -6z"/>
<path d="M2680 3030 c0 -5 5 -10 11 -10 5 0 7 5 4 10 -3 6 -8 10 -11 10 -2 0
-4 -4 -4 -10z"/>
<path d="M2679 2996 c23 -14 47 -26 51 -26 5 0 11 -6 13 -12 4 -9 6 -9 6 -1 1
13 -52 47 -89 58 -15 4 -8 -4 19 -19z"/>
<path d="M1968 2913 c-17 -4 -18 -31 -18 -384 l0 -379 23 -4 c12 -3 63 -10
114 -16 136 -17 445 -114 508 -160 6 -4 19 -10 30 -13 16 -6 15 -3 -5 13 -14
11 -35 29 -47 40 -28 25 -111 70 -130 70 -8 0 -11 5 -8 10 3 6 -1 10 -9 10 -9
0 -16 4 -16 8 0 14 -128 65 -141 56 -8 -5 -9 -3 -4 6 6 10 3 12 -14 7 -13 -3
-20 -3 -17 1 8 7 -164 63 -175 56 -18 -10 -22 50 -25 310 -1 183 -6 282 -13
289 -8 8 -11 7 -11 -2 0 -7 -4 -9 -10 -6 -5 3 -10 16 -10 28 -1 22 -1 22 -15
3 -14 -19 -15 -18 -15 11 0 21 6 33 23 41 23 11 16 13 -15 5z m502 -853 c0 -5
-8 -10 -17 -10 -15 0 -16 2 -3 10 19 12 20 12 20 0z"/>
<path d="M2178 2323 c7 -3 16 -2 19 1 4 3 -2 6 -13 5 -11 0 -14 -3 -6 -6z"/>
<path d="M2406 2243 c-6 -14 -5 -15 5 -6 7 7 10 15 7 18 -3 3 -9 -2 -12 -12z"/>
<path d="M2462 2224 c10 -10 20 -16 22 -13 3 3 -5 11 -17 18 -21 13 -21 12 -5
-5z"/>
<path d="M2701 2164 c0 -11 3 -14 6 -6 3 7 2 16 -1 19 -3 4 -6 -2 -5 -13z"/>
<path d="M2655 2080 c3 -5 8 -10 11 -10 2 0 4 5 4 10 0 6 -5 10 -11 10 -5 0
-7 -4 -4 -10z"/>
<path d="M1580 1232 c0 -71 -3 -132 -7 -135 -3 -4 -21 8 -39 26 -58 61 -149
71 -236 26 -50 -26 -76 -54 -105 -117 -51 -109 -15 -246 83 -315 75 -53 216
-46 269 13 24 27 33 25 37 -7 2 -22 9 -29 33 -34 57 -10 55 -24 55 337 l0 334
-45 0 -45 0 0 -128z m-68 -167 c30 -20 41 -37 54 -81 26 -90 -1 -172 -69 -209
-43 -23 -131 -17 -170 11 -83 60 -79 233 7 285 47 29 131 26 178 -6z"/>
<path d="M607 1324 c-4 -4 -7 -148 -7 -320 l0 -313 33 -6 c17 -3 124 -5 237
-3 l205 3 0 40 0 40 -188 3 -188 2 3 98 3 97 158 3 157 3 0 39 0 39 -157 3
-158 3 0 95 0 95 180 0 180 0 0 40 0 40 -226 3 c-124 1 -228 -1 -232 -4z"/>
<path d="M1834 1156 c-3 -8 -4 -93 -2 -188 3 -168 4 -174 30 -214 58 -90 191
-99 285 -20 l32 27 6 -35 c7 -37 37 -53 76 -41 19 6 19 17 17 243 l-3 237 -45
0 -45 0 -5 -160 c-6 -178 -13 -200 -75 -229 -41 -20 -76 -20 -121 -1 -55 23
-64 58 -64 240 l0 155 -40 0 c-26 0 -43 -5 -46 -14z"/>
<path d="M1591 404 c1 -65 4 -87 8 -64 7 34 3 150 -5 159 -2 2 -3 -40 -3 -95z"/>
<path d="M1170 470 c-10 -50 5 -142 25 -156 26 -19 79 -17 105 4 18 15 23 30
25 90 2 40 -1 74 -6 78 -5 3 -9 -27 -9 -70 0 -66 -3 -77 -22 -90 -28 -20 -58
-20 -84 -2 -15 11 -20 31 -24 93 -3 43 -8 67 -10 53z"/>
<path d="M1467 433 c32 -6 41 -23 46 -83 l3 -55 2 62 c2 66 -11 85 -55 82 -14
-1 -13 -3 4 -6z"/>
<path d="M1681 414 c-12 -15 -21 -34 -21 -44 0 -10 9 -29 21 -44 40 -51 119
-23 121 43 2 66 -80 97 -121 45z m91 -1 c36 -33 14 -103 -33 -103 -41 0 -59
19 -59 60 0 56 51 80 92 43z"/>
<path d="M1908 433 c6 -2 18 -2 25 0 6 3 1 5 -13 5 -14 0 -19 -2 -12 -5z"/>
<path d="M1403 408 c-2 -16 1 -18 10 -9 7 7 8 14 1 21 -6 6 -10 2 -11 -12z"/>
<path d="M1866 408 c-22 -31 -20 -62 7 -84 22 -19 22 -19 5 2 -22 25 -23 53
-2 82 8 12 13 22 10 22 -3 0 -12 -10 -20 -22z"/>
<path d="M1402 355 c0 -16 2 -22 5 -12 2 9 2 23 0 30 -3 6 -5 -1 -5 -18z"/>
<path d="M1940 310 c-9 -6 -10 -10 -3 -10 6 0 15 5 18 10 8 12 4 12 -15 0z"/>
</g>
</svg>
